<mxfile host="app.diagrams.net" modified="2022-06-29T04:39:20.251Z" agent="5.0 (Windows NT 10.0; Win64; x64) AppleWebKit/537.36 (KHTML, like Gecko) Chrome/103.0.0.0 Safari/537.36" etag="-OK-k8ib4pDoqSZ758qy" version="20.0.3" type="github">
  <diagram id="hmMpNr_ncaxPukPdexmq" name="Page-1">
    <mxGraphModel dx="1209" dy="652" grid="1" gridSize="10" guides="1" tooltips="1" connect="1" arrows="1" fold="1" page="1" pageScale="1" pageWidth="850" pageHeight="1100" math="0" shadow="0">
      <root>
        <mxCell id="0" />
        <mxCell id="1" parent="0" />
        <mxCell id="F4UPMz5slieaMJmf7I9N-1" value="&lt;font face=&quot;KaTeX_Main, Times New Roman, serif&quot; color=&quot;#555555&quot;&gt;&lt;span style=&quot;font-size: 16.94px; background-color: rgb(255, 255, 255);&quot;&gt;&lt;b&gt;1&lt;/b&gt;&amp;nbsp;&amp;lt;==&amp;gt; k%n + 1&amp;nbsp; &amp;nbsp; &amp;nbsp; &amp;nbsp; &amp;nbsp; = (&lt;b&gt;1 &lt;/b&gt;+ k - 1)%n&amp;nbsp; + 1&lt;br&gt;&lt;br&gt;&lt;/span&gt;&lt;/font&gt;" style="text;whiteSpace=wrap;html=1;" vertex="1" parent="1">
          <mxGeometry x="290" y="260" width="400" height="40" as="geometry" />
        </mxCell>
        <mxCell id="F4UPMz5slieaMJmf7I9N-2" value="&lt;font face=&quot;KaTeX_Main, Times New Roman, serif&quot; color=&quot;#555555&quot;&gt;&lt;span style=&quot;font-size: 16.94px; background-color: rgb(255, 255, 255);&quot;&gt;&lt;b&gt;2&lt;/b&gt;&amp;nbsp;&amp;lt;==&amp;gt; (k + 1)%n + 1 = (&lt;b&gt;2&amp;nbsp;&lt;/b&gt;+ k - 1)%n&amp;nbsp; + 1&lt;br&gt;&lt;br&gt;&lt;/span&gt;&lt;/font&gt;" style="text;whiteSpace=wrap;html=1;" vertex="1" parent="1">
          <mxGeometry x="290" y="310" width="400" height="40" as="geometry" />
        </mxCell>
        <mxCell id="F4UPMz5slieaMJmf7I9N-3" value="&lt;font face=&quot;KaTeX_Main, Times New Roman, serif&quot; color=&quot;#555555&quot;&gt;&lt;span style=&quot;font-size: 16.94px; background-color: rgb(255, 255, 255);&quot;&gt;&lt;b&gt;3&lt;/b&gt;&amp;nbsp;&amp;lt;==&amp;gt; (k + 2)%n + 1 = (&lt;b&gt;3&amp;nbsp;&lt;/b&gt;+ k - 1)%n&amp;nbsp; + 1&lt;br&gt;&lt;br&gt;&lt;/span&gt;&lt;/font&gt;" style="text;whiteSpace=wrap;html=1;" vertex="1" parent="1">
          <mxGeometry x="290" y="360" width="400" height="40" as="geometry" />
        </mxCell>
        <mxCell id="F4UPMz5slieaMJmf7I9N-4" value="next cycle" style="text;html=1;strokeColor=none;fillColor=none;align=center;verticalAlign=middle;whiteSpace=wrap;rounded=0;" vertex="1" parent="1">
          <mxGeometry x="264" y="219" width="60" height="30" as="geometry" />
        </mxCell>
        <mxCell id="F4UPMz5slieaMJmf7I9N-5" value="prev cycle" style="text;html=1;strokeColor=none;fillColor=none;align=center;verticalAlign=middle;whiteSpace=wrap;rounded=0;" vertex="1" parent="1">
          <mxGeometry x="350" y="219" width="60" height="30" as="geometry" />
        </mxCell>
        <mxCell id="F4UPMz5slieaMJmf7I9N-6" value="" style="rounded=0;whiteSpace=wrap;html=1;fillColor=none;dashed=1;" vertex="1" parent="1">
          <mxGeometry x="284" y="250" width="20" height="165" as="geometry" />
        </mxCell>
        <mxCell id="F4UPMz5slieaMJmf7I9N-9" value="" style="rounded=0;whiteSpace=wrap;html=1;fillColor=none;dashed=1;" vertex="1" parent="1">
          <mxGeometry x="345" y="249" width="100" height="165" as="geometry" />
        </mxCell>
        <mxCell id="F4UPMz5slieaMJmf7I9N-10" value="" style="shape=flexArrow;endArrow=classic;html=1;rounded=0;fillColor=#dae8fc;strokeColor=#6c8ebf;" edge="1" parent="1">
          <mxGeometry width="50" height="50" relative="1" as="geometry">
            <mxPoint x="420" y="426" as="sourcePoint" />
            <mxPoint x="420" y="466" as="targetPoint" />
          </mxGeometry>
        </mxCell>
        <mxCell id="F4UPMz5slieaMJmf7I9N-11" value="&lt;font face=&quot;KaTeX_Main, Times New Roman, serif&quot; color=&quot;#555555&quot;&gt;&lt;span style=&quot;font-size: 16.94px; background-color: rgb(255, 255, 255);&quot;&gt;&lt;span&gt;f(n, k)&lt;/span&gt; = (&lt;/span&gt;&lt;/font&gt;&lt;span style=&quot;color: rgb(85, 85, 85); font-family: KaTeX_Main, &amp;quot;Times New Roman&amp;quot;, serif; font-size: 16.94px;&quot;&gt;f(n - 1, k)&amp;nbsp;&lt;/span&gt;&lt;font face=&quot;KaTeX_Main, Times New Roman, serif&quot; color=&quot;#555555&quot;&gt;&lt;span style=&quot;font-size: 16.94px; background-color: rgb(255, 255, 255);&quot;&gt;+ k - 1)%n&amp;nbsp; + 1&lt;br&gt;&lt;br&gt;&lt;/span&gt;&lt;/font&gt;" style="text;whiteSpace=wrap;html=1;fontStyle=0" vertex="1" parent="1">
          <mxGeometry x="284" y="470" width="400" height="40" as="geometry" />
        </mxCell>
      </root>
    </mxGraphModel>
  </diagram>
</mxfile>
